# xmcd
#
# Track frame offsets: 
#        150
#        19200
#        39288
#        56973
#        79194
#        93654
#        114535
#        141391
#        163855
#        182188
#        203852
#        228046
#        247872
#        268539
#        285021
#        303037
#        318502
#
# Disc length: 4559 seconds
#
# Revision: 0
# Processed by: cddbd v1.5.1PL0 Copyright (c) Steve Scherf et al.
# Submitted via: ExactAudioCopy v0.95a4
#
DISCID=e311cd11
DTITLE=中国民族音乐 - 巴乌与葫芦丝
DYEAR=1900
DGENRE=
TTITLE0=月光下的凤尾竹〈葫芦丝〉
TTITLE1=绣荷包〈巴乌〉
TTITLE2=星星索〈葫芦丝〉
TTITLE3=姑娘生来爱唱歌〈巴乌〉
TTITLE4=多情的巴乌〈葫芦丝
TTITLE5=十大姐〈葫芦丝〉
TTITLE6=小河淌水〈巴乌〉
TTITLE7=知不知道〈葫芦丝 弦乐〉
TTITLE8=北国之春〈葫芦丝〉
TTITLE9=独角戏
TTITLE10=草原之夜〈洞箫〉
TTITLE11=军港之夜〈葫芦丝〉
TTITLE12=婚誓〈巴乌〉
TTITLE13=情深意长〈葫芦丝〉
TTITLE14=在一起〈巴乌〉
TTITLE15=月亮代表我的心〈葫芦丝〉
TTITLE16=其实你不动我的心〈葫芦丝〉
EXTD=
EXTT0=
EXTT1=
EXTT2=
EXTT3=
EXTT4=
EXTT5=
EXTT6=
EXTT7=
EXTT8=
EXTT9=
EXTT10=
EXTT11=
EXTT12=
EXTT13=
EXTT14=
EXTT15=
EXTT16=
PLAYORDER=
